# xmcd
#
# Track frame offsets: 
#        150
#        20490
#        46355
#
# Disc length: 896 seconds
#
# Revision: 1
# Processed by: cddbd v1.5.2PL0 Copyright (c) Steve Scherf et al.
# Submitted via: ExactAudioCopy v1.3
#
DISCID=1d037e03
DTITLE=Rod Stewart - Tom Traubert's Blues
DYEAR=1992
DGENRE=Blues
TTITLE0=Tom Traubert's Blues (Waltzing Mathilda)
TTITLE1=No Holding Back
TTITLE2=Downtown Train
EXTD=
EXTT0=
EXTT1=
EXTT2=
PLAYORDER=
